<svg width="1280" height="720" xmlns="http://www.w3.org/2000/svg" xmlns:xlink="http://www.w3.org/1999/xlink" overflow="hidden"><defs><clipPath id="clip0"><rect x="0" y="0" width="1280" height="720"/></clipPath></defs><g clip-path="url(#clip0)"><rect x="0" y="0" width="1280" height="720" fill="#FFFFFF"/><path d="M42.5001 105.833C42.5001 92.9467 77.8696 82.5001 121.5 82.5001 165.131 82.5001 200.5 92.9467 200.5 105.833L200.5 199.167C200.5 212.053 165.131 222.5 121.5 222.5 77.8696 222.5 42.5001 212.053 42.5001 199.167Z" fill="#A5A5A5" fill-rule="evenodd"/><path d="M200.5 105.833C200.5 118.72 165.131 129.167 121.5 129.167 77.8696 129.167 42.5001 118.72 42.5001 105.833" stroke="#F2F2F2" stroke-width="1.33333" stroke-miterlimit="8" fill="none" fill-rule="evenodd"/><path d="M42.5001 105.833C42.5001 92.9467 77.8696 82.5001 121.5 82.5001 165.131 82.5001 200.5 92.9467 200.5 105.833L200.5 199.167C200.5 212.053 165.131 222.5 121.5 222.5 77.8696 222.5 42.5001 212.053 42.5001 199.167Z" stroke="#F2F2F2" stroke-width="1.33333" stroke-miterlimit="8" fill="none" fill-rule="evenodd"/><text fill="#FFFFFF" font-family="Calibri,Calibri_MSFontService,sans-serif" font-weight="400" font-size="24" transform="translate(69.304 157)">Customers</text><text fill="#FFFFFF" font-family="Calibri,Calibri_MSFontService,sans-serif" font-weight="400" font-size="24" transform="translate(86.0907 186)">Review</text><path d="M640 77C640 63.7452 650.745 53 664 53 677.255 53 688 63.7452 688 77 688 90.2548 677.255 101 664 101 650.745 101 640 90.2548 640 77Z" fill="#4472C4" fill-rule="evenodd"/><path d="M640 265C640 251.745 650.745 241 664 241 677.255 241 688 251.745 688 265 688 278.255 677.255 289 664 289 650.745 289 640 278.255 640 265Z" fill="#4472C4" fill-rule="evenodd"/><path d="M640 176C640 162.745 650.745 152 664 152 677.255 152 688 162.745 688 176 688 189.255 677.255 200 664 200 650.745 200 640 189.255 640 176Z" fill="#4472C4" fill-rule="evenodd"/><path d="M752 265C752 251.745 762.745 241 776 241 789.255 241 800 251.745 800 265 800 278.255 789.255 289 776 289 762.745 289 752 278.255 752 265Z" fill="#4472C4" fill-rule="evenodd"/><path d="M865 265C865 251.745 875.745 241 889 241 902.255 241 913 251.745 913 265 913 278.255 902.255 289 889 289 875.745 289 865 278.255 865 265Z" fill="#ED7D31" fill-rule="evenodd"/><path d="M752 176C752 162.745 762.745 152 776 152 789.255 152 800 162.745 800 176 800 189.255 789.255 200 776 200 762.745 200 752 189.255 752 176Z" fill="#4472C4" fill-rule="evenodd"/><path d="M865 176C865 162.745 875.745 152 889 152 902.255 152 913 162.745 913 176 913 189.255 902.255 200 889 200 875.745 200 865 189.255 865 176Z" fill="#70AD47" fill-rule="evenodd"/><path d="M865 77C865 63.7452 875.745 53 889 53 902.255 53 913 63.7452 913 77 913 90.2548 902.255 101 889 101 875.745 101 865 90.2548 865 77Z" fill="#FFC000" fill-rule="evenodd"/><path d="M753 77C753 63.7452 763.745 53 777 53 790.255 53 801 63.7452 801 77 801 90.2548 790.255 101 777 101 763.745 101 753 90.2548 753 77Z" fill="#4472C4" fill-rule="evenodd"/><path d="M1074 165 1086 141 1110 141 1122 165 1110 189 1086 189Z" fill="#FFC000" fill-rule="evenodd"/><path d="M1074 115 1086 91 1110 91 1122 115 1110 139 1086 139Z" fill="#FFC000" fill-rule="evenodd"/><path d="M1114 190 1126 166 1150 166 1162 190 1150 214 1126 214Z" fill="#70AD47" fill-rule="evenodd"/><path d="M1074 216 1086 192 1110 192 1122 216 1110 240 1086 240Z" fill="#FFC000" fill-rule="evenodd"/><path d="M1151 165 1163 141 1187 141 1199 165 1187 189 1163 189Z" fill="#ED7D31" fill-rule="evenodd"/><path d="M1151 216 1163 192 1187 192 1199 216 1187 240 1163 240Z" fill="#ED7D31" fill-rule="evenodd"/><path d="M1113 140 1125 116 1149 116 1161 140 1149 164 1125 164Z" fill="#70AD47" fill-rule="evenodd"/><path d="M1021 413.5C1021 402.178 1030.18 393 1041.5 393L1203.5 393C1214.82 393 1224 402.178 1224 413.5L1224 495.5C1224 506.822 1214.82 516 1203.5 516L1041.5 516C1030.18 516 1021 506.822 1021 495.5Z" fill="#5B9BD5" fill-rule="evenodd"/><text fill="#FFFFFF" font-family="Calibri,Calibri_MSFontService,sans-serif" font-weight="400" font-size="24" transform="translate(1073.49 448)">Clustering</text><text fill="#FFFFFF" font-family="Calibri,Calibri_MSFontService,sans-serif" font-weight="400" font-size="24" transform="translate(1085 477)">Feature</text><path d="M317.5 204.031C398.858 219.109 398.858 188.954 480.206 188.954L480.206 110.576 317.5 110.576ZM330.905 110.576 330.905 100.415 492.5 100.415 492.5 179.284C486.358 179.284 480.206 179.83 480.206 179.83L480.206 110.576ZM343.505 100.415 343.505 90.5001 506.5 90.5001 506.5 169.123C499.5 169.123 492.5 169.533 492.5 169.533L492.5 100.415Z" fill="#FFF2CC" fill-rule="evenodd"/><path d="M317.5 110.576 480.206 110.576 480.206 188.954C398.858 188.954 398.858 219.109 317.5 204.031ZM330.905 110.576 330.905 100.415 492.5 100.415 492.5 179.284C486.358 179.284 480.206 179.83 480.206 179.83M343.505 100.415 343.505 90.5001 506.5 90.5001 506.5 169.123C499.5 169.123 492.5 169.533 492.5 169.533" stroke="#F8CBAD" stroke-width="1.33333" stroke-miterlimit="8" fill="none" fill-rule="evenodd"/><text fill="#7F7F7F" font-family="Calibri,Calibri_MSFontService,sans-serif" font-weight="400" font-size="24" transform="translate(334.932 165)">List of Words</text><path d="M478.5 551C428.518 551 388 510.706 388 461 388 411.294 428.518 371 478.5 371 528.482 371 569 411.294 569 461 569 484.87 559.465 507.761 542.493 524.64L569 524.64 569 551Z" fill="#00B0F0" fill-rule="evenodd"/><text fill="#FFFFFF" font-family="Calibri,Calibri_MSFontService,sans-serif" font-weight="400" font-size="24" transform="translate(453.47 454)">Filter</text><text fill="#FFFFFF" font-family="Calibri,Calibri_MSFontService,sans-serif" font-weight="400" font-size="24" transform="translate(436.536 483)">Features</text><path d="M42.5001 545.706C150.116 565.256 150.116 526.156 257.72 526.156L257.72 424.531 42.5001 424.531ZM60.2315 424.531 60.2315 411.356 273.982 411.356 273.982 513.618C265.857 513.618 257.72 514.327 257.72 514.327L257.72 424.531ZM76.8982 411.356 76.8982 398.5 292.5 398.5 292.5 500.443C283.241 500.443 273.982 500.975 273.982 500.975L273.982 411.356Z" fill="#FFF2CC" fill-rule="evenodd"/><path d="M42.5001 424.531 257.72 424.531 257.72 526.156C150.116 526.156 150.116 565.256 42.5001 545.706ZM60.2315 424.531 60.2315 411.356 273.982 411.356 273.982 513.618C265.857 513.618 257.72 514.327 257.72 514.327M76.8982 411.356 76.8982 398.5 292.5 398.5 292.5 500.443C283.241 500.443 273.982 500.975 273.982 500.975" stroke="#F8CBAD" stroke-width="1.33333" stroke-miterlimit="8" fill="none" fill-rule="evenodd"/><text fill="#7F7F7F" font-family="Calibri,Calibri_MSFontService,sans-serif" font-weight="400" font-size="24" transform="translate(57.6382 478)">Prominent Aspects</text><text fill="#7F7F7F" font-family="Calibri,Calibri_MSFontService,sans-serif" font-weight="400" font-size="24" transform="translate(133.051 507)">List</text><path d="M688.5 545.668C795.685 565.346 795.685 525.99 902.859 525.99L902.859 423.701 688.5 423.701ZM706.161 423.701 706.161 410.44 919.056 410.44 919.056 513.371C910.963 513.371 902.859 514.084 902.859 514.084L902.859 423.701ZM722.761 410.44 722.761 397.5 937.5 397.5 937.5 500.11C928.278 500.11 919.056 500.644 919.056 500.644L919.056 410.44Z" fill="#FFF2CC" fill-rule="evenodd"/><path d="M688.5 423.701 902.859 423.701 902.859 525.99C795.685 525.99 795.685 565.346 688.5 545.668ZM706.161 423.701 706.161 410.44 919.056 410.44 919.056 513.371C910.963 513.371 902.859 514.084 902.859 514.084M722.761 410.44 722.761 397.5 937.5 397.5 937.5 500.11C928.278 500.11 919.056 500.644 919.056 500.644" stroke="#F8CBAD" stroke-width="1.33333" stroke-miterlimit="8" fill="none" fill-rule="evenodd"/><text fill="#7F7F7F" font-family="Calibri,Calibri_MSFontService,sans-serif" font-weight="400" font-size="24" transform="translate(701.019 492)">Candidate Features</text><text fill="#44546A" font-family="Calibri Light,Calibri Light_MSFontService,sans-serif" font-weight="300" font-size="24" transform="translate(690.498 37)">Word Embedding</text><path d="M688.5 77.5001 753.064 77.5002" stroke="#4472C4" stroke-width="0.666667" stroke-miterlimit="8" fill="none" fill-rule="evenodd"/><path d="M801.5 77.5001 866.064 77.5002" stroke="#4472C4" stroke-width="0.666667" stroke-miterlimit="8" fill="none" fill-rule="evenodd"/><path d="M688.5 176.5 752.669 176.5" stroke="#4472C4" stroke-width="0.666667" stroke-miterlimit="8" fill="none" fill-rule="evenodd"/><path d="M800.5 176.5 865.458 176.5" stroke="#4472C4" stroke-width="0.666667" stroke-miterlimit="8" fill="none" fill-rule="evenodd"/><path d="M688.5 265.5 752.669 265.5" stroke="#4472C4" stroke-width="0.666667" stroke-miterlimit="8" fill="none" fill-rule="evenodd"/><path d="M800.5 265.5 865.458 265.5" stroke="#4472C4" stroke-width="0.666667" stroke-miterlimit="8" fill="none" fill-rule="evenodd"/><path d="M681.5 94.5001 759.728 159.554" stroke="#4472C4" stroke-width="0.666667" stroke-miterlimit="8" fill="none" fill-rule="evenodd"/><path d="M0 0 78.6223 65.0535" stroke="#4472C4" stroke-width="0.666667" stroke-miterlimit="8" fill="none" fill-rule="evenodd" transform="matrix(1 0 0 -1 681.5 159.554)"/><path d="M681.5 193.5 759.728 249.136" stroke="#4472C4" stroke-width="0.666667" stroke-miterlimit="8" fill="none" fill-rule="evenodd"/><path d="M0 0 78.2281 55.6362" stroke="#4472C4" stroke-width="0.666667" stroke-miterlimit="8" fill="none" fill-rule="evenodd" transform="matrix(1 0 0 -1 681.5 249.136)"/><path d="M681.5 94.5001 759.728 249.131" stroke="#4472C4" stroke-width="0.666667" stroke-miterlimit="8" fill="none" fill-rule="evenodd"/><path d="M0 0 78.6223 154.631" stroke="#4472C4" stroke-width="0.666667" stroke-miterlimit="8" fill="none" fill-rule="evenodd" transform="matrix(1 0 0 -1 681.5 249.131)"/><path d="M794.5 94.5001 873.122 159.554" stroke="#4472C4" stroke-width="0.666667" stroke-miterlimit="8" fill="none" fill-rule="evenodd"/><path d="M794.5 94.5001 873.122 249.131" stroke="#4472C4" stroke-width="0.666667" stroke-miterlimit="8" fill="none" fill-rule="evenodd"/><path d="M0 0 79.0164 65.0535" stroke="#4472C4" stroke-width="0.666667" stroke-miterlimit="8" fill="none" fill-rule="evenodd" transform="matrix(1 0 0 -1 793.5 159.554)"/><path d="M793.5 193.5 872.516 249.136" stroke="#4472C4" stroke-width="0.666667" stroke-miterlimit="8" fill="none" fill-rule="evenodd"/><path d="M0 0 79.0164 55.6362" stroke="#4472C4" stroke-width="0.666667" stroke-miterlimit="8" fill="none" fill-rule="evenodd" transform="matrix(1 0 0 -1 793.5 249.136)"/><path d="M0 0 79.0164 154.631" stroke="#4472C4" stroke-width="0.666667" stroke-miterlimit="8" fill="none" fill-rule="evenodd" transform="matrix(1 0 0 -1 793.5 249.131)"/><path d="M1113 241 1125 217 1149 217 1161 241 1149 265 1125 265Z" fill="#70AD47" fill-rule="evenodd"/><path d="M1151 115 1163 91 1187 91 1199 115 1187 139 1163 139Z" fill="#ED7D31" fill-rule="evenodd"/><path d="M1114 89 1126 65 1150 65 1162 89 1150 113 1126 113Z" fill="#70AD47" fill-rule="evenodd"/><path d="M913.5 77.5001 1074.68 115.913" stroke="#FFC000" stroke-width="0.666667" stroke-miterlimit="8" fill="none" fill-rule="evenodd"/><path d="M0 0 161.183 60.5818" stroke="#70AD47" stroke-width="0.666667" stroke-miterlimit="8" fill="none" fill-rule="evenodd" transform="matrix(1 0 0 -1 913.5 176.082)"/><path d="M0 0 161.183 150.159" stroke="#ED7D31" stroke-width="0.666667" stroke-miterlimit="8" fill="none" fill-rule="evenodd" transform="matrix(1 0 0 -1 913.5 265.659)"/><path d="M913.5 77.5001 1074.68 165.807" stroke="#FFC000" stroke-width="0.666667" stroke-miterlimit="8" fill="none" fill-rule="evenodd"/><path d="M0 0 161.183 10.6876" stroke="#70AD47" stroke-width="0.666667" stroke-miterlimit="8" fill="none" fill-rule="evenodd" transform="matrix(1 0 0 -1 913.5 176.188)"/><path d="M0 0 161.183 100.265" stroke="#ED7D31" stroke-width="0.666667" stroke-miterlimit="8" fill="none" fill-rule="evenodd" transform="matrix(1 0 0 -1 913.5 265.765)"/><path d="M913.5 77.5001 1074.68 216.567" stroke="#FFC000" stroke-width="0.666667" stroke-miterlimit="8" fill="none" fill-rule="evenodd"/><path d="M913.5 176.5 1074.68 216.572" stroke="#70AD47" stroke-width="0.666667" stroke-miterlimit="8" fill="none" fill-rule="evenodd"/><path d="M0 0 161.183 49.5056" stroke="#ED7D31" stroke-width="0.666667" stroke-miterlimit="8" fill="none" fill-rule="evenodd" transform="matrix(1 0 0 -1 913.5 266.006)"/><text fill="#44546A" font-family="Calibri Light,Calibri Light_MSFontService,sans-serif" font-weight="300" font-size="24" transform="translate(1065.75 27)">Dimensionality</text><text fill="#44546A" font-family="Calibri Light,Calibri Light_MSFontService,sans-serif" font-weight="300" font-size="24" transform="translate(1088.57 56)">Reduction</text><path d="M241.5 128.5 259 128.5 276.5 147 259 165.5 241.5 165.5 259 147Z" stroke="#2F528F" stroke-width="1.33333" stroke-miterlimit="8" fill="#4472C4" fill-rule="evenodd"/><path d="M121.5 601.5 139 601.5 156.5 620 139 638.5 121.5 638.5 139 620Z" stroke="#2F528F" stroke-width="1.33333" stroke-miterlimit="8" fill="#4472C4" fill-rule="evenodd"/><path d="M352.5 473.5 335 473.5 317.5 455 335 436.5 352.5 436.5 335 455Z" stroke="#2F528F" stroke-width="1.33333" stroke-miterlimit="8" fill="#4472C4" fill-rule="evenodd"/><path d="M639.5 474.5 622 474.5 604.5 456 622 437.5 639.5 437.5 622 456Z" stroke="#2F528F" stroke-width="1.33333" stroke-miterlimit="8" fill="#4472C4" fill-rule="evenodd"/><path d="M997.5 473.5 979.5 473.5 961.5 455 979.5 436.5 997.5 436.5 979.5 455Z" stroke="#2F528F" stroke-width="1.33333" stroke-miterlimit="8" fill="#4472C4" fill-rule="evenodd"/><path d="M1150.5 312.5 1150.5 330 1132 347.5 1113.5 330 1113.5 312.5 1132 330Z" stroke="#2F528F" stroke-width="1.33333" stroke-miterlimit="8" fill="#4472C4" fill-rule="evenodd"/><path d="M551.5 128.5 569 128.5 586.5 146.5 569 164.5 551.5 164.5 569 146.5Z" stroke="#2F528F" stroke-width="1.33333" stroke-miterlimit="8" fill="#4472C4" fill-rule="evenodd"/><path d="M263.5 620.5C263.5 593.99 284.99 572.5 311.5 572.5 338.01 572.5 359.5 593.99 359.5 620.5 359.5 647.01 338.01 668.5 311.5 668.5 284.99 668.5 263.5 647.01 263.5 620.5Z" fill="#C5E0B4" fill-rule="evenodd"/><path d="M291.122 606.144C291.122 603.383 293.361 601.144 296.122 601.144 298.884 601.144 301.122 603.383 301.122 606.144 301.122 608.906 298.884 611.144 296.122 611.144 293.361 611.144 291.122 608.906 291.122 606.144M321.878 606.144C321.878 603.383 324.116 601.144 326.878 601.144 329.639 601.144 331.878 603.383 331.878 606.144 331.878 608.906 329.639 611.144 326.878 611.144 324.116 611.144 321.878 608.906 321.878 606.144" stroke="#2F528F" stroke-width="1.33333" stroke-miterlimit="8" fill="#9EB491" fill-rule="evenodd"/><path d="M285.484 641.433C302.828 653.345 320.152 653.345 337.456 641.433" stroke="#2F528F" stroke-width="1.33333" stroke-miterlimit="8" fill="none" fill-rule="evenodd"/><path d="M263.5 620.5C263.5 593.99 284.99 572.5 311.5 572.5 338.01 572.5 359.5 593.99 359.5 620.5 359.5 647.01 338.01 668.5 311.5 668.5 284.99 668.5 263.5 647.01 263.5 620.5Z" stroke="#2F528F" stroke-width="1.33333" stroke-miterlimit="8" fill="none" fill-rule="evenodd"/><path d="M523.811 623.159C523.29 623.159 522.832 623.206 522.439 623.301 522.046 623.396 521.727 623.528 521.484 623.698 521.24 623.867 521.06 624.069 520.943 624.303 520.827 624.537 520.769 624.809 520.769 625.119 520.769 625.655 520.932 626.078 521.26 626.386 521.588 626.695 522.064 626.85 522.688 626.85 523.191 626.85 523.662 626.719 524.1 626.459 524.538 626.198 524.994 625.806 525.468 625.283L525.468 623.159ZM461.79 618.412C461.313 618.412 460.892 618.503 460.529 618.683 460.166 618.863 459.86 619.101 459.609 619.398 459.359 619.695 459.165 620.045 459.027 620.448 458.89 620.851 458.811 621.188 458.792 621.459L464.621 621.459C464.641 620.571 464.408 619.841 463.921 619.269 463.435 618.698 462.725 618.412 461.79 618.412ZM406.79 618.412C406.313 618.412 405.892 618.503 405.529 618.683 405.166 618.863 404.86 619.101 404.609 619.398 404.359 619.695 404.165 620.045 404.027 620.448 403.89 620.851 403.811 621.188 403.792 621.459L409.621 621.459C409.641 620.571 409.408 619.841 408.921 619.269 408.435 618.698 407.725 618.412 406.79 618.412ZM555.476 616.901C555.616 616.901 555.743 616.908 555.856 616.923 555.97 616.938 556.068 616.967 556.151 617.011 556.233 617.056 556.298 617.116 556.344 617.193 556.39 617.27 556.413 617.35 556.413 617.434L556.413 627.829C556.413 627.915 556.389 627.998 556.342 628.077 556.294 628.156 556.229 628.214 556.146 628.252 556.063 628.291 555.971 628.318 555.871 628.336 555.771 628.353 555.639 628.362 555.476 628.362 555.318 628.362 555.192 628.353 555.097 628.337 555.002 628.32 554.909 628.293 554.817 628.254 554.725 628.214 554.66 628.156 554.62 628.077 554.581 627.999 554.562 627.916 554.562 627.829L554.562 617.434C554.562 617.349 554.581 617.268 554.619 617.191 554.658 617.115 554.721 617.054 554.81 617.01 554.898 616.966 554.998 616.937 555.109 616.922 555.22 616.908 555.342 616.901 555.476 616.901ZM535.007 616.901C535.173 616.901 535.317 616.908 535.439 616.922 535.561 616.936 535.668 616.961 535.758 616.997 535.849 617.033 535.917 617.083 535.962 617.147 536.007 617.211 536.048 617.288 536.086 617.377L539.12 625.854 542.106 617.357C542.164 617.193 542.247 617.084 542.353 617.028 542.459 616.972 542.579 616.936 542.713 616.922 542.847 616.908 542.988 616.901 543.136 616.901 543.292 616.901 543.433 616.911 543.559 616.931 543.685 616.951 543.794 617 543.887 617.077 543.981 617.154 544.027 617.248 544.027 617.359 544.027 617.47 544.002 617.592 543.95 617.725L540.088 627.823 538.632 632.027C538.564 632.177 538.446 632.291 538.278 632.369 538.111 632.448 537.874 632.487 537.567 632.487 537.402 632.487 537.263 632.477 537.151 632.459 537.039 632.44 536.937 632.392 536.846 632.315 536.755 632.238 536.704 632.142 536.693 632.025 536.682 631.908 536.711 631.76 536.781 631.58L538.206 628.193C538.207 628.212 538.172 628.18 538.103 628.099 538.033 628.017 537.985 627.932 537.959 627.842L534.186 617.723C534.139 617.594 534.115 617.471 534.115 617.356 534.115 617.24 534.158 617.143 534.245 617.065 534.331 616.987 534.439 616.94 534.57 616.924 534.701 616.909 534.846 616.901 535.007 616.901ZM434.476 616.901C434.616 616.901 434.743 616.908 434.856 616.923 434.97 616.938 435.068 616.967 435.151 617.011 435.233 617.056 435.298 617.116 435.344 617.193 435.39 617.27 435.413 617.35 435.413 617.434L435.413 627.829C435.413 627.915 435.389 627.998 435.342 628.077 435.294 628.156 435.229 628.214 435.146 628.252 435.063 628.291 434.971 628.318 434.871 628.336 434.771 628.353 434.639 628.362 434.476 628.362 434.318 628.362 434.192 628.353 434.097 628.337 434.002 628.32 433.909 628.293 433.817 628.254 433.725 628.214 433.66 628.156 433.62 628.077 433.581 627.999 433.561 627.916 433.561 627.829L433.561 617.434C433.561 617.349 433.581 617.268 433.619 617.191 433.658 617.115 433.721 617.054 433.81 617.01 433.898 616.966 433.998 616.937 434.109 616.922 434.22 616.908 434.342 616.901 434.476 616.901ZM563.752 616.772C564.024 616.772 564.292 616.794 564.557 616.837 564.822 616.881 565.07 616.941 565.301 617.017 565.532 617.093 565.729 617.173 565.892 617.26 566.055 617.345 566.186 617.426 566.285 617.502 566.384 617.577 566.455 617.648 566.497 617.715 566.539 617.781 566.567 617.842 566.581 617.897 566.595 617.953 566.607 618.022 566.617 618.107 566.627 618.192 566.632 618.278 566.632 618.366 566.632 618.466 566.625 618.56 566.611 618.648 566.597 618.736 566.572 618.822 566.537 618.905 566.501 618.989 566.447 619.058 566.375 619.114 566.303 619.17 566.215 619.198 566.11 619.198 565.997 619.198 565.873 619.151 565.737 619.057 565.601 618.963 565.438 618.868 565.249 618.773 565.059 618.678 564.833 618.59 564.571 618.51 564.309 618.429 564.014 618.389 563.684 618.389 563.354 618.389 563.067 618.427 562.822 618.503 562.577 618.579 562.379 618.682 562.228 618.814 562.076 618.946 561.964 619.098 561.891 619.27 561.817 619.443 561.78 619.638 561.78 619.856 561.78 620.15 561.846 620.395 561.977 620.592 562.108 620.789 562.29 620.965 562.521 621.119 562.753 621.273 563.042 621.421 563.39 621.561 563.738 621.702 564.064 621.832 564.369 621.951 564.675 622.071 564.994 622.212 565.327 622.374 565.661 622.537 565.963 622.738 566.234 622.976 566.505 623.214 566.726 623.504 566.894 623.846 567.063 624.188 567.147 624.593 567.147 625.062 567.147 625.595 567.049 626.074 566.851 626.498 566.653 626.922 566.37 627.284 566 627.583 565.63 627.882 565.196 628.108 564.697 628.261 564.197 628.414 563.646 628.491 563.041 628.491 562.651 628.491 562.296 628.462 561.974 628.405 561.652 628.347 561.351 628.272 561.071 628.178 560.792 628.083 560.557 627.984 560.367 627.879 560.177 627.775 560.028 627.673 559.919 627.575 559.811 627.477 559.733 627.356 559.685 627.211 559.636 627.067 559.612 626.884 559.612 626.663 559.612 626.546 559.621 626.442 559.64 626.351 559.658 626.259 559.684 626.173 559.719 626.092 559.754 626.01 559.81 625.943 559.887 625.888 559.965 625.834 560.051 625.807 560.145 625.807 560.279 625.807 560.437 625.868 560.621 625.99 560.804 626.112 561.01 626.232 561.237 626.351 561.464 626.47 561.732 626.579 562.04 626.678 562.349 626.777 562.712 626.826 563.13 626.826 563.469 626.826 563.769 626.792 564.029 626.724 564.29 626.655 564.515 626.553 564.704 626.417 564.894 626.282 565.04 626.11 565.142 625.902 565.245 625.694 565.296 625.448 565.296 625.165 565.296 624.895 565.23 624.664 565.099 624.475 564.969 624.285 564.787 624.113 564.556 623.96 564.324 623.807 564.054 623.669 563.745 623.547 563.437 623.424 563.112 623.294 562.773 623.157 562.434 623.021 562.099 622.869 561.77 622.703 561.441 622.536 561.143 622.33 560.878 622.085 560.612 621.84 560.395 621.541 560.227 621.188 560.06 620.836 559.976 620.415 559.976 619.925 559.976 619.533 560.05 619.149 560.2 618.771 560.35 618.393 560.579 618.056 560.888 617.759 561.197 617.463 561.592 617.224 562.074 617.043 562.556 616.862 563.115 616.772 563.752 616.772ZM548.752 616.772C549.024 616.772 549.292 616.794 549.557 616.837 549.822 616.881 550.07 616.941 550.301 617.017 550.532 617.093 550.729 617.173 550.892 617.26 551.055 617.345 551.186 617.426 551.285 617.502 551.384 617.577 551.455 617.648 551.497 617.715 551.539 617.781 551.567 617.842 551.581 617.897 551.595 617.953 551.607 618.022 551.617 618.107 551.627 618.192 551.632 618.278 551.632 618.366 551.632 618.466 551.625 618.56 551.611 618.648 551.597 618.736 551.572 618.822 551.537 618.905 551.501 618.989 551.447 619.058 551.375 619.114 551.303 619.17 551.215 619.198 551.11 619.198 550.997 619.198 550.873 619.151 550.737 619.057 550.601 618.963 550.438 618.868 550.249 618.773 550.059 618.678 549.833 618.59 549.571 618.51 549.309 618.429 549.014 618.389 548.684 618.389 548.354 618.389 548.067 618.427 547.822 618.503 547.577 618.579 547.379 618.682 547.228 618.814 547.076 618.946 546.964 619.098 546.891 619.27 546.817 619.443 546.78 619.638 546.78 619.856 546.78 620.15 546.846 620.395 546.977 620.592 547.108 620.789 547.29 620.965 547.521 621.119 547.753 621.273 548.042 621.421 548.39 621.561 548.738 621.702 549.064 621.832 549.369 621.951 549.675 622.071 549.994 622.212 550.327 622.374 550.661 622.537 550.963 622.738 551.234 622.976 551.505 623.214 551.726 623.504 551.894 623.846 552.063 624.188 552.147 624.593 552.147 625.062 552.147 625.595 552.049 626.074 551.851 626.498 551.653 626.922 551.37 627.284 551 627.583 550.63 627.882 550.196 628.108 549.697 628.261 549.197 628.414 548.646 628.491 548.041 628.491 547.651 628.491 547.296 628.462 546.974 628.405 546.652 628.347 546.351 628.272 546.071 628.178 545.792 628.083 545.557 627.984 545.367 627.879 545.177 627.775 545.028 627.673 544.919 627.575 544.811 627.477 544.733 627.356 544.685 627.211 544.636 627.067 544.612 626.884 544.612 626.663 544.612 626.546 544.621 626.442 544.64 626.351 544.658 626.259 544.684 626.173 544.719 626.092 544.754 626.01 544.81 625.943 544.887 625.888 544.965 625.834 545.051 625.807 545.145 625.807 545.279 625.807 545.437 625.868 545.621 625.99 545.804 626.112 546.01 626.232 546.237 626.351 546.464 626.47 546.732 626.579 547.04 626.678 547.349 626.777 547.712 626.826 548.13 626.826 548.469 626.826 548.769 626.792 549.029 626.724 549.29 626.655 549.515 626.553 549.704 626.417 549.894 626.282 550.04 626.11 550.142 625.902 550.245 625.694 550.296 625.448 550.296 625.165 550.296 624.895 550.23 624.664 550.099 624.475 549.969 624.285 549.787 624.113 549.556 623.96 549.324 623.807 549.054 623.669 548.745 623.547 548.437 623.424 548.112 623.294 547.773 623.157 547.434 623.021 547.099 622.869 546.77 622.703 546.441 622.536 546.143 622.33 545.878 622.085 545.612 621.84 545.395 621.541 545.227 621.188 545.06 620.836 544.976 620.415 544.976 619.925 544.976 619.533 545.05 619.149 545.2 618.771 545.35 618.393 545.579 618.056 545.888 617.759 546.197 617.463 546.592 617.224 547.074 617.043 547.556 616.862 548.115 616.772 548.752 616.772ZM523.237 616.772C523.975 616.772 524.605 616.864 525.128 617.047 525.651 617.231 526.077 617.499 526.408 617.851 526.739 618.202 526.973 618.628 527.112 619.129 527.25 619.63 527.319 620.186 527.319 620.797L527.319 627.829C527.319 627.975 527.272 628.088 527.178 628.167 527.084 628.247 526.984 628.299 526.879 628.324 526.773 628.349 526.638 628.362 526.474 628.362 526.323 628.362 526.189 628.349 526.071 628.325 525.953 628.3 525.848 628.249 525.756 628.171 525.664 628.094 525.618 627.979 525.618 627.829L525.618 626.902C525.41 627.378 525.01 627.761 524.417 628.053 523.824 628.345 523.205 628.491 522.558 628.491 521.989 628.491 521.474 628.415 521.014 628.264 520.555 628.114 520.163 627.895 519.84 627.609 519.517 627.323 519.268 626.977 519.095 626.572 518.922 626.167 518.835 625.714 518.835 625.211 518.835 624.596 518.963 624.06 519.219 623.601 519.474 623.142 519.835 622.762 520.301 622.459 520.766 622.157 521.316 621.932 521.951 621.785 522.585 621.638 523.285 621.565 524.05 621.565L525.468 621.565 525.468 620.902C525.468 620.481 525.425 620.114 525.341 619.8 525.256 619.486 525.124 619.229 524.944 619.029 524.764 618.828 524.523 618.675 524.222 618.57 523.921 618.465 523.55 618.412 523.108 618.412 522.679 618.412 522.288 618.466 521.937 618.572 521.585 618.678 521.275 618.798 521.007 618.932 520.739 619.066 520.508 619.192 520.315 619.312 520.121 619.431 519.962 619.491 519.837 619.491 519.756 619.491 519.679 619.475 519.603 619.445 519.528 619.415 519.467 619.362 519.418 619.286 519.37 619.21 519.339 619.132 519.325 619.052 519.311 618.971 519.304 618.871 519.304 618.75 519.304 618.564 519.318 618.41 519.348 618.286 519.377 618.163 519.451 618.042 519.569 617.924 519.687 617.806 519.879 617.677 520.145 617.536 520.411 617.396 520.704 617.27 521.024 617.158 521.344 617.047 521.701 616.955 522.092 616.882 522.484 616.808 522.866 616.772 523.237 616.772ZM512.568 616.772C513.287 616.772 513.897 616.895 514.4 617.143 514.903 617.39 515.309 617.724 515.619 618.146 515.929 618.567 516.15 619.049 516.282 619.592 516.414 620.135 516.479 620.782 516.479 621.533L516.479 627.829C516.479 627.915 516.456 627.998 516.408 628.077 516.361 628.156 516.295 628.214 516.212 628.252 516.129 628.291 516.037 628.318 515.937 628.336 515.837 628.353 515.709 628.362 515.553 628.362 515.388 628.362 515.257 628.353 515.158 628.336 515.06 628.319 514.97 628.292 514.889 628.254 514.808 628.217 514.744 628.16 514.698 628.083 514.651 628.006 514.628 627.921 514.628 627.829L514.628 621.659C514.628 621.045 514.58 620.545 514.485 620.161 514.39 619.776 514.253 619.455 514.075 619.197 513.896 618.94 513.668 618.741 513.39 618.6 513.112 618.459 512.788 618.389 512.417 618.389 511.945 618.389 511.458 618.568 510.955 618.925 510.452 619.283 509.938 619.79 509.413 620.446L509.413 627.829C509.413 627.915 509.389 627.998 509.342 628.077 509.294 628.156 509.229 628.214 509.146 628.252 509.063 628.291 508.971 628.318 508.871 628.336 508.771 628.353 508.639 628.362 508.476 628.362 508.318 628.362 508.192 628.353 508.097 628.337 508.002 628.32 507.909 628.293 507.817 628.254 507.725 628.214 507.66 628.156 507.62 628.077 507.581 627.999 507.561 627.916 507.561 627.829L507.561 617.434C507.561 617.349 507.581 617.268 507.619 617.191 507.658 617.115 507.721 617.054 507.81 617.01 507.898 616.966 507.993 616.937 508.094 616.922 508.196 616.908 508.315 616.901 508.452 616.901 508.586 616.901 508.708 616.908 508.82 616.923 508.931 616.939 509.027 616.969 509.108 617.016 509.189 617.063 509.248 617.125 509.286 617.201 509.325 617.278 509.344 617.355 509.344 617.434L509.344 618.669C509.679 618.035 510.15 617.56 510.755 617.245 511.361 616.929 511.965 616.772 512.568 616.772ZM473.568 616.772C474.287 616.772 474.897 616.895 475.4 617.143 475.903 617.39 476.309 617.724 476.619 618.146 476.929 618.567 477.15 619.049 477.282 619.592 477.414 620.135 477.479 620.782 477.479 621.533L477.479 627.829C477.479 627.915 477.456 627.998 477.408 628.077 477.361 628.156 477.295 628.214 477.212 628.252 477.129 628.291 477.037 628.318 476.937 628.336 476.837 628.353 476.709 628.362 476.553 628.362 476.388 628.362 476.257 628.353 476.158 628.336 476.06 628.319 475.97 628.292 475.889 628.254 475.808 628.217 475.744 628.16 475.697 628.083 475.651 628.006 475.628 627.921 475.628 627.829L475.628 621.659C475.628 621.045 475.58 620.545 475.485 620.161 475.39 619.776 475.253 619.455 475.075 619.197 474.896 618.94 474.668 618.741 474.39 618.6 474.112 618.459 473.788 618.389 473.417 618.389 472.945 618.389 472.458 618.568 471.955 618.925 471.452 619.283 470.938 619.79 470.413 620.446L470.413 627.829C470.413 627.915 470.389 627.998 470.342 628.077 470.294 628.156 470.229 628.214 470.146 628.252 470.063 628.291 469.971 628.318 469.871 628.336 469.771 628.353 469.639 628.362 469.476 628.362 469.318 628.362 469.192 628.353 469.097 628.337 469.002 628.32 468.909 628.293 468.817 628.254 468.725 628.214 468.66 628.156 468.62 628.077 468.581 627.999 468.561 627.916 468.561 627.829L468.561 617.434C468.561 617.349 468.581 617.268 468.619 617.191 468.658 617.115 468.721 617.054 468.81 617.01 468.898 616.966 468.993 616.937 469.094 616.922 469.196 616.908 469.315 616.901 469.452 616.901 469.586 616.901 469.708 616.908 469.82 616.923 469.931 616.939 470.027 616.969 470.108 617.016 470.189 617.063 470.248 617.125 470.286 617.201 470.325 617.278 470.344 617.355 470.344 617.434L470.344 618.669C470.679 618.035 471.15 617.56 471.755 617.245 472.361 616.929 472.965 616.772 473.568 616.772ZM461.881 616.772C462.695 616.772 463.396 616.911 463.984 617.188 464.572 617.466 465.054 617.838 465.432 618.305 465.809 618.771 466.084 619.309 466.256 619.919 466.428 620.528 466.515 621.162 466.515 621.819L466.515 622.095C466.515 622.451 466.415 622.699 466.216 622.841 466.018 622.982 465.821 623.053 465.626 623.053L458.792 623.053C458.792 623.525 458.852 624.009 458.973 624.506 459.093 625.003 459.287 625.422 459.555 625.764 459.822 626.106 460.17 626.369 460.599 626.552 461.028 626.735 461.568 626.826 462.22 626.826 462.69 626.826 463.109 626.786 463.478 626.704 463.846 626.622 464.164 626.532 464.431 626.432 464.698 626.333 464.93 626.237 465.126 626.145 465.322 626.052 465.474 626.006 465.583 626.006 465.67 626.006 465.756 626.031 465.838 626.081 465.921 626.131 465.981 626.196 466.018 626.276 466.055 626.355 466.08 626.443 466.095 626.538 466.109 626.634 466.116 626.741 466.116 626.861 466.116 626.923 466.112 626.981 466.103 627.037 466.095 627.093 466.082 627.152 466.065 627.213 466.049 627.275 466.022 627.335 465.986 627.396 465.95 627.456 465.907 627.511 465.857 627.561 465.807 627.611 465.67 627.69 465.446 627.798 465.223 627.906 464.951 628.008 464.629 628.105 464.307 628.201 463.924 628.289 463.479 628.37 463.035 628.45 462.561 628.491 462.056 628.491 461.218 628.491 460.474 628.364 459.825 628.112 459.175 627.859 458.627 627.483 458.18 626.983 457.734 626.483 457.398 625.874 457.173 625.155 456.947 624.436 456.835 623.601 456.835 622.648 456.835 621.744 456.952 620.929 457.187 620.205 457.422 619.48 457.76 618.863 458.203 618.351 458.645 617.84 459.18 617.449 459.806 617.178 460.433 616.907 461.124 616.772 461.881 616.772ZM443.392 616.772C443.85 616.772 444.262 616.827 444.627 616.938 444.992 617.049 445.317 617.208 445.602 617.413 445.886 617.618 446.127 617.861 446.325 618.141 446.522 618.422 446.635 618.674 446.664 618.899 446.853 618.545 447.111 618.228 447.438 617.949 447.765 617.669 448.079 617.443 448.381 617.27 448.683 617.096 448.981 616.97 449.273 616.891 449.565 616.811 449.849 616.772 450.124 616.772 450.812 616.772 451.399 616.896 451.886 617.146 452.373 617.395 452.763 617.73 453.055 618.149 453.347 618.568 453.556 619.05 453.68 619.595 453.804 620.14 453.866 620.709 453.866 621.303L453.866 627.829C453.866 627.915 453.842 627.998 453.795 628.077 453.747 628.156 453.682 628.214 453.599 628.252 453.516 628.291 453.424 628.318 453.324 628.336 453.224 628.353 453.096 628.362 452.94 628.362 452.775 628.362 452.645 628.353 452.55 628.337 452.455 628.32 452.362 628.293 452.27 628.254 452.178 628.214 452.113 628.156 452.074 628.077 452.034 627.999 452.015 627.916 452.015 627.829L452.015 621.429C452.015 620.962 451.973 620.538 451.889 620.156 451.806 619.775 451.679 619.454 451.509 619.195 451.34 618.935 451.128 618.736 450.874 618.597 450.62 618.458 450.32 618.389 449.973 618.389 449.546 618.389 449.102 618.565 448.639 618.916 448.177 619.267 447.673 619.779 447.128 620.451L447.128 627.829C447.128 627.912 447.104 627.995 447.055 628.075 447.007 628.156 446.941 628.215 446.859 628.253 446.777 628.291 446.686 628.318 446.586 628.336 446.486 628.353 446.358 628.362 446.202 628.362 446.045 628.362 445.918 628.353 445.823 628.337 445.728 628.32 445.635 628.293 445.543 628.254 445.452 628.215 445.386 628.156 445.347 628.077 445.308 627.999 445.288 627.916 445.288 627.829L445.288 621.429C445.288 620.965 445.244 620.54 445.156 620.155 445.068 619.77 444.941 619.449 444.773 619.192 444.606 618.936 444.395 618.738 444.14 618.598 443.886 618.459 443.586 618.389 443.24 618.389 442.814 618.389 442.371 618.564 441.911 618.914 441.451 619.265 440.951 619.777 440.413 620.451L440.413 627.829C440.413 627.915 440.389 627.998 440.342 628.077 440.294 628.156 440.229 628.214 440.146 628.252 440.063 628.291 439.971 628.318 439.871 628.336 439.771 628.353 439.639 628.362 439.476 628.362 439.318 628.362 439.192 628.353 439.097 628.337 439.002 628.32 438.909 628.293 438.817 628.254 438.725 628.214 438.66 628.156 438.62 628.077 438.581 627.999 438.561 627.916 438.561 627.829L438.561 617.434C438.561 617.349 438.581 617.268 438.619 617.191 438.658 617.115 438.721 617.054 438.81 617.01 438.898 616.966 438.993 616.937 439.094 616.922 439.196 616.908 439.315 616.901 439.452 616.901 439.586 616.901 439.708 616.908 439.82 616.923 439.931 616.939 440.027 616.969 440.108 617.016 440.189 617.063 440.248 617.125 440.286 617.201 440.325 617.278 440.344 617.355 440.344 617.434L440.344 618.669C440.677 618.036 441.127 617.562 441.693 617.246 442.259 616.93 442.825 616.772 443.392 616.772ZM418.568 616.772C419.287 616.772 419.897 616.895 420.4 617.143 420.903 617.39 421.309 617.724 421.619 618.146 421.929 618.567 422.15 619.049 422.282 619.592 422.414 620.135 422.479 620.782 422.479 621.533L422.479 627.829C422.479 627.915 422.456 627.998 422.408 628.077 422.361 628.156 422.295 628.214 422.212 628.252 422.129 628.291 422.037 628.318 421.937 628.336 421.837 628.353 421.709 628.362 421.553 628.362 421.388 628.362 421.257 628.353 421.158 628.336 421.06 628.319 420.97 628.292 420.889 628.254 420.808 628.217 420.744 628.16 420.697 628.083 420.651 628.006 420.628 627.921 420.628 627.829L420.628 621.659C420.628 621.045 420.58 620.545 420.485 620.161 420.39 619.776 420.253 619.455 420.075 619.197 419.896 618.94 419.668 618.741 419.39 618.6 419.112 618.459 418.788 618.389 418.417 618.389 417.945 618.389 417.458 618.568 416.955 618.925 416.452 619.283 415.938 619.79 415.413 620.446L415.413 627.829C415.413 627.915 415.389 627.998 415.342 628.077 415.294 628.156 415.229 628.214 415.146 628.252 415.063 628.291 414.971 628.318 414.871 628.336 414.771 628.353 414.639 628.362 414.476 628.362 414.318 628.362 414.192 628.353 414.097 628.337 414.002 628.32 413.909 628.293 413.817 628.254 413.725 628.214 413.66 628.156 413.62 628.077 413.581 627.999 413.561 627.916 413.561 627.829L413.561 617.434C413.561 617.349 413.581 617.268 413.619 617.191 413.658 617.115 413.721 617.054 413.81 617.01 413.898 616.966 413.993 616.937 414.094 616.922 414.196 616.908 414.315 616.901 414.452 616.901 414.586 616.901 414.708 616.908 414.82 616.923 414.931 616.939 415.027 616.969 415.108 617.016 415.189 617.063 415.248 617.125 415.286 617.201 415.325 617.278 415.344 617.355 415.344 617.434L415.344 618.669C415.679 618.035 416.15 617.56 416.755 617.245 417.361 616.929 417.965 616.772 418.568 616.772ZM406.881 616.772C407.695 616.772 408.396 616.911 408.984 617.188 409.572 617.466 410.054 617.838 410.432 618.305 410.809 618.771 411.084 619.309 411.256 619.919 411.428 620.528 411.515 621.162 411.515 621.819L411.515 622.095C411.515 622.451 411.415 622.699 411.216 622.841 411.018 622.982 410.821 623.053 410.626 623.053L403.792 623.053C403.792 623.525 403.852 624.009 403.973 624.506 404.093 625.003 404.287 625.422 404.555 625.764 404.822 626.106 405.17 626.369 405.599 626.552 406.028 626.735 406.568 626.826 407.22 626.826 407.69 626.826 408.109 626.786 408.478 626.704 408.846 626.622 409.164 626.532 409.431 626.432 409.698 626.333 409.93 626.237 410.126 626.145 410.322 626.052 410.474 626.006 410.583 626.006 410.67 626.006 410.756 626.031 410.838 626.081 410.921 626.131 410.981 626.196 411.018 626.276 411.055 626.355 411.08 626.443 411.095 626.538 411.109 626.634 411.116 626.741 411.116 626.861 411.116 626.923 411.112 626.981 411.103 627.037 411.095 627.093 411.082 627.152 411.065 627.213 411.049 627.275 411.022 627.335 410.986 627.396 410.95 627.456 410.907 627.511 410.857 627.561 410.807 627.611 410.67 627.69 410.446 627.798 410.223 627.906 409.951 628.008 409.629 628.105 409.307 628.201 408.924 628.289 408.479 628.37 408.035 628.45 407.561 628.491 407.056 628.491 406.218 628.491 405.474 628.364 404.825 628.112 404.175 627.859 403.627 627.483 403.18 626.983 402.734 626.483 402.398 625.874 402.173 625.155 401.947 624.436 401.835 623.601 401.835 622.648 401.835 621.744 401.952 620.929 402.187 620.205 402.422 619.48 402.76 618.863 403.203 618.351 403.645 617.84 404.18 617.449 404.806 617.178 405.433 616.907 406.124 616.772 406.881 616.772ZM498.431 615.374 495.863 622.455 501.072 622.455ZM481.898 614.1C482.038 614.1 482.164 614.107 482.278 614.122 482.392 614.137 482.49 614.167 482.573 614.211 482.655 614.255 482.719 614.315 482.766 614.392 482.812 614.469 482.835 614.549 482.835 614.633L482.835 616.948 485.456 616.948C485.55 616.948 485.638 616.969 485.718 617.013 485.798 617.057 485.863 617.119 485.912 617.198 485.96 617.278 485.995 617.366 486.015 617.462 486.036 617.559 486.046 617.661 486.046 617.768 486.046 618.002 485.994 618.195 485.891 618.348 485.787 618.5 485.642 618.576 485.456 618.576L482.835 618.576 482.835 624.634C482.835 625.388 482.931 625.942 483.124 626.296 483.317 626.65 483.662 626.826 484.16 626.826 484.333 626.826 484.482 626.81 484.606 626.778 484.731 626.746 484.852 626.707 484.968 626.66 485.085 626.613 485.189 626.568 485.281 626.524 485.373 626.481 485.465 626.459 485.559 626.459 485.635 626.459 485.71 626.478 485.786 626.515 485.861 626.553 485.916 626.611 485.951 626.688 485.986 626.766 486.011 626.844 486.025 626.923 486.039 627.003 486.046 627.098 486.046 627.21 486.046 627.384 486.028 627.538 485.992 627.672 485.956 627.807 485.897 627.914 485.815 627.996 485.734 628.077 485.627 628.148 485.495 628.207 485.363 628.266 485.218 628.314 485.062 628.351 484.906 628.388 484.744 628.417 484.576 628.437 484.407 628.457 484.237 628.467 484.066 628.467 483.522 628.467 483.054 628.392 482.661 628.241 482.268 628.09 481.945 627.86 481.691 627.551 481.437 627.242 481.255 626.861 481.147 626.409 481.038 625.957 480.983 625.426 480.983 624.817L480.983 618.576 479.664 618.576C479.471 618.576 479.326 618.501 479.229 618.351 479.133 618.201 479.085 618.007 479.085 617.768 479.085 617.648 479.095 617.542 479.114 617.451 479.133 617.359 479.167 617.274 479.216 617.194 479.265 617.115 479.329 617.054 479.407 617.011 479.485 616.969 479.571 616.948 479.664 616.948L480.983 616.948 480.983 614.633C480.983 614.548 481.003 614.467 481.041 614.39 481.079 614.314 481.143 614.253 481.232 614.209 481.32 614.165 481.42 614.136 481.531 614.122 481.642 614.107 481.764 614.1 481.898 614.1ZM426.898 614.1C427.038 614.1 427.164 614.107 427.278 614.122 427.392 614.137 427.49 614.167 427.573 614.211 427.655 614.255 427.719 614.315 427.766 614.392 427.812 614.469 427.835 614.549 427.835 614.633L427.835 616.948 430.456 616.948C430.55 616.948 430.638 616.969 430.718 617.013 430.798 617.057 430.863 617.119 430.912 617.198 430.96 617.278 430.995 617.366 431.015 617.462 431.036 617.559 431.046 617.661 431.046 617.768 431.046 618.002 430.994 618.195 430.891 618.348 430.787 618.5 430.642 618.576 430.456 618.576L427.835 618.576 427.835 624.634C427.835 625.388 427.931 625.942 428.124 626.296 428.317 626.65 428.662 626.826 429.16 626.826 429.333 626.826 429.482 626.81 429.606 626.778 429.731 626.746 429.852 626.707 429.968 626.66 430.085 626.613 430.189 626.568 430.281 626.524 430.373 626.481 430.465 626.459 430.559 626.459 430.635 626.459 430.71 626.478 430.786 626.515 430.861 626.553 430.916 626.611 430.951 626.688 430.986 626.766 431.011 626.844 431.025 626.923 431.039 627.003 431.046 627.098 431.046 627.21 431.046 627.384 431.028 627.538 430.992 627.672 430.956 627.807 430.897 627.914 430.815 627.996 430.734 628.077 430.627 628.148 430.495 628.207 430.363 628.266 430.218 628.314 430.062 628.351 429.906 628.388 429.744 628.417 429.576 628.437 429.407 628.457 429.237 628.467 429.066 628.467 428.522 628.467 428.054 628.392 427.661 628.241 427.268 628.09 426.945 627.86 426.691 627.551 426.437 627.242 426.255 626.861 426.147 626.409 426.038 625.957 425.983 625.426 425.983 624.817L425.983 618.576 424.664 618.576C424.471 618.576 424.326 618.501 424.229 618.351 424.133 618.201 424.085 618.007 424.085 617.768 424.085 617.648 424.095 617.542 424.114 617.451 424.133 617.359 424.167 617.274 424.216 617.194 424.265 617.115 424.329 617.054 424.407 617.011 424.485 616.969 424.571 616.948 424.664 616.948L425.983 616.948 425.983 614.633C425.983 614.548 426.003 614.467 426.041 614.39 426.079 614.314 426.143 614.253 426.232 614.209 426.32 614.165 426.42 614.136 426.531 614.122 426.642 614.107 426.764 614.1 426.898 614.1ZM498.499 612.881C498.633 612.881 498.763 612.888 498.889 612.902 499.015 612.916 499.127 612.938 499.223 612.969 499.32 612.999 499.402 613.048 499.469 613.115 499.536 613.182 499.594 613.367 499.642 613.671L504.842 627.583C504.887 627.675 504.906 627.783 504.9 627.909 504.893 628.035 504.842 628.135 504.746 628.208 504.651 628.282 504.54 628.326 504.412 628.34 504.285 628.355 504.133 628.362 503.955 628.362 503.775 628.362 503.632 628.355 503.526 628.342 503.42 628.33 503.324 628.305 503.239 628.268 503.154 628.232 503.09 628.182 503.046 628.12 503.003 628.058 502.962 627.982 502.924 627.893L501.56 624.096 495.383 624.096 494.054 627.891C494.035 627.96 493.999 628.026 493.948 628.09 493.897 628.154 493.831 628.207 493.749 628.248 493.667 628.289 493.573 628.318 493.465 628.336 493.357 628.353 493.218 628.362 493.047 628.362 492.862 628.362 492.706 628.353 492.58 628.334 492.453 628.316 492.343 628.271 492.249 628.199 492.155 628.126 492.106 628.028 492.1 627.905 492.094 627.781 492.114 627.671 492.16 627.575L497.381 613.356C497.42 613.256 497.475 613.174 497.547 613.108 497.618 613.043 497.7 612.996 497.793 612.967 497.886 612.937 497.995 612.916 498.12 612.902 498.245 612.888 498.371 612.881 498.499 612.881ZM555.481 612.764C555.887 612.764 556.177 612.851 556.351 613.025 556.525 613.199 556.612 613.501 556.612 613.93 556.612 614.362 556.524 614.666 556.347 614.843 556.171 615.019 555.874 615.108 555.458 615.108 555.053 615.108 554.765 615.022 554.594 614.852 554.424 614.682 554.339 614.378 554.339 613.942 554.339 613.508 554.427 613.203 554.602 613.027 554.777 612.852 555.07 612.764 555.481 612.764ZM434.481 612.764C434.887 612.764 435.177 612.851 435.351 613.025 435.525 613.199 435.612 613.501 435.612 613.93 435.612 614.362 435.524 614.666 435.347 614.843 435.171 615.019 434.874 615.108 434.458 615.108 434.053 615.108 433.765 615.022 433.594 614.852 433.424 614.682 433.339 614.378 433.339 613.942 433.339 613.508 433.427 613.203 433.602 613.027 433.777 612.852 434.07 612.764 434.481 612.764ZM395.437 612.764C395.753 612.764 396.084 612.797 396.428 612.862 396.772 612.928 397.092 613.009 397.387 613.107 397.682 613.206 397.953 613.319 398.199 613.448 398.445 613.577 398.611 613.685 398.697 613.77 398.783 613.856 398.841 613.926 398.871 613.981 398.902 614.036 398.926 614.096 398.945 614.163 398.964 614.23 398.979 614.309 398.988 614.401 398.998 614.493 399.003 614.588 399.003 614.686 399.003 614.792 398.996 614.893 398.982 614.99 398.969 615.086 398.945 615.176 398.912 615.259 398.879 615.342 398.826 615.416 398.754 615.48 398.682 615.544 398.591 615.576 398.481 615.576 398.35 615.576 398.19 615.516 398.003 615.396 397.816 615.275 397.598 615.149 397.349 615.017 397.1 614.886 396.801 614.766 396.454 614.659 396.107 614.552 395.719 614.498 395.29 614.498 394.873 614.498 394.51 614.554 394.202 614.666 393.894 614.778 393.641 614.928 393.443 615.116 393.245 615.304 393.097 615.523 392.998 615.774 392.9 616.026 392.851 616.295 392.851 616.583 392.851 617.004 392.941 617.364 393.121 617.663 393.302 617.962 393.547 618.229 393.855 618.466 394.163 618.703 394.522 618.921 394.932 619.12 395.341 619.319 395.764 619.521 396.201 619.726 396.638 619.931 397.072 620.154 397.503 620.395 397.934 620.636 398.321 620.922 398.665 621.254 399.009 621.586 399.288 621.98 399.502 622.438 399.716 622.895 399.823 623.428 399.823 624.038 399.823 624.729 399.698 625.351 399.446 625.902 399.195 626.454 398.842 626.923 398.387 627.309 397.932 627.695 397.395 627.988 396.776 628.189 396.157 628.39 395.486 628.491 394.763 628.491 394.265 628.491 393.802 628.445 393.372 628.356 392.942 628.266 392.555 628.156 392.211 628.028 391.866 627.9 391.573 627.768 391.331 627.632 391.089 627.497 390.917 627.375 390.816 627.269 390.714 627.163 390.639 627.035 390.591 626.885 390.543 626.736 390.519 626.56 390.519 626.357 390.519 626.213 390.528 626.089 390.547 625.985 390.566 625.88 390.597 625.785 390.64 625.699 390.683 625.613 390.746 625.55 390.83 625.512 390.913 625.474 390.995 625.455 391.074 625.455 391.231 625.455 391.415 625.528 391.627 625.674 391.839 625.819 392.095 625.968 392.395 626.12 392.695 626.273 393.051 626.413 393.463 626.541 393.875 626.669 394.357 626.733 394.909 626.733 395.357 626.733 395.76 626.675 396.118 626.559 396.475 626.443 396.785 626.276 397.046 626.058 397.307 625.839 397.509 625.571 397.652 625.254 397.795 624.936 397.866 624.574 397.866 624.166 397.866 623.753 397.775 623.397 397.594 623.096 397.412 622.796 397.17 622.53 396.867 622.298 396.564 622.066 396.193 621.843 395.756 621.628 395.319 621.414 394.896 621.21 394.487 621.019 394.079 620.827 393.664 620.61 393.241 620.368 392.818 620.125 392.434 619.835 392.09 619.499 391.745 619.162 391.467 618.767 391.257 618.313 391.046 617.859 390.94 617.317 390.94 616.687 390.94 616.076 391.05 615.528 391.27 615.044 391.49 614.56 391.8 614.148 392.201 613.808 392.601 613.469 393.079 613.21 393.634 613.032 394.189 612.853 394.79 612.764 395.437 612.764ZM531.476 611.803C531.616 611.803 531.743 611.81 531.857 611.825 531.97 611.84 532.069 611.87 532.151 611.914 532.233 611.958 532.298 612.019 532.344 612.095 532.39 612.172 532.413 612.252 532.413 612.336L532.413 627.828C532.413 627.915 532.389 627.998 532.342 628.077 532.294 628.155 532.229 628.214 532.146 628.252 532.063 628.291 531.971 628.318 531.871 628.336 531.771 628.353 531.639 628.362 531.476 628.362 531.318 628.362 531.192 628.353 531.097 628.337 531.002 628.32 530.908 628.293 530.817 628.253 530.725 628.214 530.66 628.155 530.62 628.077 530.581 627.999 530.562 627.916 530.562 627.828L530.562 612.336C530.562 612.251 530.581 612.17 530.619 612.094 530.657 612.017 530.721 611.957 530.81 611.913 530.898 611.868 530.998 611.839 531.109 611.825 531.22 611.81 531.342 611.803 531.476 611.803Z" stroke="#C5E0B4" stroke-linejoin="round" stroke-miterlimit="10" fill="#70AD47" fill-rule="evenodd"/><text fill="#000000" fill-opacity="0" font-family="Arial,Arial_MSFontService,sans-serif" font-size="20.6836" x="390.519" y="629.901">Sentiment Analysis</text></g></svg>