<svg width="960" height="720" xmlns="http://www.w3.org/2000/svg" xmlns:xlink="http://www.w3.org/1999/xlink" overflow="hidden"><defs><clipPath id="clip0"><rect x="0" y="0" width="960" height="720"/></clipPath></defs><g clip-path="url(#clip0)"><rect x="0" y="0" width="960" height="720" fill="#FFFFFF"/><path d="M69 543C69 534.164 76.1636 527 85.0003 527L257 527C265.836 527 273 534.164 273 543L273 607C273 615.836 265.836 623 257 623L85.0003 623C76.1636 623 69 615.836 69 607Z" fill="#44546A" fill-rule="evenodd"/><text fill="#FFFFFF" font-family="Calibri,Calibri_MSFontService,sans-serif" font-weight="700" font-size="27" transform="translate(96.5231 584)">sentiwordnet</text><path d="M93.5001 82.6667C93.5001 72.6335 133.794 64.5001 183.5 64.5001 233.206 64.5001 273.5 72.6335 273.5 82.6667L273.5 155.333C273.5 165.367 233.206 173.5 183.5 173.5 133.794 173.5 93.5001 165.367 93.5001 155.333Z" fill="#ED7D31" fill-rule="evenodd"/><path d="M273.5 82.6667C273.5 92.6999 233.206 100.833 183.5 100.833 133.794 100.833 93.5001 92.6999 93.5001 82.6667" stroke="#FBE5D6" stroke-width="1.33333" stroke-miterlimit="8" fill="none" fill-rule="evenodd"/><path d="M93.5001 82.6667C93.5001 72.6335 133.794 64.5001 183.5 64.5001 233.206 64.5001 273.5 72.6335 273.5 82.6667L273.5 155.333C273.5 165.367 233.206 173.5 183.5 173.5 133.794 173.5 93.5001 165.367 93.5001 155.333Z" stroke="#FBE5D6" stroke-width="1.33333" stroke-miterlimit="8" fill="none" fill-rule="evenodd"/><text fill="#FFFFFF" font-family="Calibri,Calibri_MSFontService,sans-serif" font-weight="400" font-size="24" transform="translate(145.863 135)">Dataset</text><path d="M64.5001 421.706C154.467 441.256 154.467 402.156 244.424 402.156L244.424 300.531 64.5001 300.531ZM79.3236 300.531 79.3236 287.356 258.019 287.356 258.019 389.618C251.226 389.618 244.424 390.327 244.424 390.327L244.424 300.531ZM93.2569 287.356 93.2569 274.5 273.5 274.5 273.5 376.443C265.759 376.443 258.019 376.975 258.019 376.975L258.019 287.356Z" fill="#FFD966" fill-rule="evenodd"/><path d="M64.5001 300.531 244.424 300.531 244.424 402.156C154.467 402.156 154.467 441.256 64.5001 421.706ZM79.3236 300.531 79.3236 287.356 258.019 287.356 258.019 389.618C251.226 389.618 244.424 390.327 244.424 390.327M93.2569 287.356 93.2569 274.5 273.5 274.5 273.5 376.443C265.759 376.443 258.019 376.975 258.019 376.975" stroke="#FFF2CC" stroke-width="1.33333" stroke-miterlimit="8" fill="none" fill-rule="evenodd"/><text fill="#FFFFFF" font-family="Calibri,Calibri_MSFontService,sans-serif" font-weight="400" font-size="24" transform="translate(88.8545 354)">List of Tokens</text><text fill="#FFFFFF" font-family="Calibri,Calibri_MSFontService,sans-serif" font-weight="400" font-size="24" transform="translate(102.341 383)">(sentence)</text><path d="M727.5 606.296C783.46 620.48 783.46 592.113 839.414 592.113L839.414 518.385 727.5 518.385ZM736.72 518.385 736.72 508.827 847.87 508.827 847.87 583.017C843.645 583.017 839.414 583.531 839.414 583.531L839.414 518.385ZM745.387 508.827 745.387 499.5 857.5 499.5 857.5 573.459C852.685 573.459 847.87 573.844 847.87 573.844L847.87 508.827Z" fill="#C00000" fill-rule="evenodd"/><path d="M727.5 518.385 839.414 518.385 839.414 592.113C783.46 592.113 783.46 620.48 727.5 606.296ZM736.72 518.385 736.72 508.827 847.87 508.827 847.87 583.017C843.645 583.017 839.414 583.531 839.414 583.531M745.387 508.827 745.387 499.5 857.5 499.5 857.5 573.459C852.685 573.459 847.87 573.844 847.87 573.844" stroke="#FF0000" stroke-width="1.33333" stroke-miterlimit="8" fill="none" fill-rule="evenodd"/><text fill="#FFFFFF" font-family="Calibri,Calibri_MSFontService,sans-serif" font-weight="400" font-size="24" transform="translate(740.166 555)">Negative</text><text fill="#FFFFFF" font-family="Calibri,Calibri_MSFontService,sans-serif" font-weight="400" font-size="24" transform="translate(743.513 584)">Weights</text><path d="M455.5 606.296C511.46 620.48 511.46 592.113 567.414 592.113L567.414 518.385 455.5 518.385ZM464.72 518.385 464.72 508.827 575.87 508.827 575.87 583.017C571.645 583.017 567.414 583.531 567.414 583.531L567.414 518.385ZM473.387 508.827 473.387 499.5 585.5 499.5 585.5 573.459C580.685 573.459 575.87 573.844 575.87 573.844L575.87 508.827Z" fill="#70AD47" fill-rule="evenodd"/><path d="M455.5 518.385 567.414 518.385 567.414 592.113C511.46 592.113 511.46 620.48 455.5 606.296ZM464.72 518.385 464.72 508.827 575.87 508.827 575.87 583.017C571.645 583.017 567.414 583.531 567.414 583.531M473.387 508.827 473.387 499.5 585.5 499.5 585.5 573.459C580.685 573.459 575.87 573.844 575.87 573.844" stroke="#E2F0D9" stroke-width="1.33333" stroke-miterlimit="8" fill="none" fill-rule="evenodd"/><text fill="#FFFFFF" font-family="Calibri,Calibri_MSFontService,sans-serif" font-weight="400" font-size="24" transform="translate(473.251 555)">Positive</text><text fill="#FFFFFF" font-family="Calibri,Calibri_MSFontService,sans-serif" font-weight="400" font-size="24" transform="translate(471.444 584)">Weights</text><path d="M578 314C578 305.164 585.164 298 594 298L766 298C774.836 298 782 305.164 782 314L782 378C782 386.836 774.836 394 766 394L594 394C585.164 394 578 386.836 578 378Z" fill="#FFD966" fill-rule="evenodd"/><text fill="#595959" font-family="Calibri,Calibri_MSFontService,sans-serif" font-weight="400" font-size="24" transform="translate(638.357 354)">Distance</text><path d="M454.285 101.258C452.83 88.5683 460.32 76.8822 471.013 75.1562 475.346 74.4567 479.751 75.5023 483.524 78.1255 487.522 69.1824 496.864 65.7835 504.391 70.534 505.707 71.3647 506.915 72.4175 507.977 73.6597 511.091 66.2465 518.675 63.2347 524.917 66.9326 526.644 67.9561 528.151 69.4364 529.322 71.2596 534.341 64.2491 543.209 63.3831 549.13 69.3254 551.619 71.8229 553.296 75.2677 553.874 79.0691 562.097 81.7318 566.948 91.8176 564.709 101.596 564.521 102.419 564.285 103.224 564.002 104.007 570.597 114.197 568.983 128.801 560.396 136.627 557.723 139.063 554.566 140.641 551.23 141.207 551.156 152.169 543.602 160.984 534.357 160.896 531.269 160.867 528.247 159.825 525.627 157.885 522.501 170.175 511.594 177.122 501.267 173.401 496.939 171.841 493.2 168.543 490.687 164.069 480.113 171.638 466.389 167.567 460.033 154.975 459.953 154.816 459.874 154.657 459.797 154.496 452.877 155.457 446.609 149.597 445.796 141.407 445.363 137.041 446.578 132.671 449.116 129.462 443.124 125.276 441.111 116.087 444.62 108.938 446.644 104.814 450.195 102.087 454.179 101.597Z" fill="#70AD47" fill-rule="evenodd"/><text fill="#FFFFFF" font-family="Calibri,Calibri_MSFontService,sans-serif" font-weight="400" font-size="19" transform="translate(471.491 123)">Positive</text><path d="M623.958 80.4334C622.353 69.2574 630.621 58.9651 642.426 57.4449 647.21 56.8289 652.073 57.7498 656.239 60.0602 660.652 52.1836 670.966 49.1901 679.276 53.374 680.729 54.1056 682.062 55.0329 683.234 56.1269 686.672 49.5979 695.045 46.9453 701.936 50.2022 703.844 51.1036 705.507 52.4073 706.8 54.0131 712.34 47.8387 722.131 47.076 728.668 52.3096 731.415 54.5092 733.267 57.5432 733.905 60.8912 742.983 63.2363 748.339 72.1192 745.867 80.7318 745.659 81.4559 745.398 82.1653 745.087 82.855 752.367 91.8292 750.585 104.692 741.106 111.585 738.155 113.73 734.669 115.119 730.986 115.618 730.904 125.273 722.564 133.037 712.359 132.959 708.949 132.933 705.613 132.016 702.721 130.307 699.269 141.132 687.228 147.25 675.827 143.972 671.049 142.599 666.92 139.694 664.146 135.754 652.473 142.42 637.321 138.834 630.304 127.744 630.216 127.604 630.129 127.464 630.044 127.322 622.404 128.169 615.484 123.008 614.587 115.794 614.109 111.949 615.45 108.1 618.252 105.274 611.637 101.587 609.415 93.4938 613.289 87.1977 615.523 83.5653 619.443 81.1641 623.842 80.7324Z" stroke="#000000" stroke-linejoin="round" stroke-miterlimit="10" fill="none" fill-rule="evenodd"/><path d="M626.492 106.671C623.668 106.881 620.844 106.262 618.4 104.9M633.631 126.053C632.496 126.481 631.305 126.766 630.091 126.901M664.138 135.367C663.284 134.154 662.569 132.857 662.005 131.5M703.586 125.724C703.461 127.163 703.175 128.586 702.734 129.967M720.523 99.5089C726.926 102.46 730.967 108.628 730.91 115.366M745.021 82.6201C743.984 84.9143 742.401 86.9495 740.397 88.566M733.924 60.5578C734.101 61.4843 734.182 62.4247 734.168 63.366M704.388 57.2823C704.991 55.9868 705.789 54.7805 706.757 53.7011M682.228 58.9889C682.474 57.9183 682.86 56.8808 683.376 55.9004M656.222 60.0378C657.729 60.8738 659.124 61.88 660.375 63.0342M624.684 83.5867C624.355 82.5556 624.112 81.5015 623.959 80.4342" stroke="#000000" stroke-linejoin="round" stroke-miterlimit="10" fill="none" fill-rule="evenodd"/><text font-family="Calibri,Calibri_MSFontService,sans-serif" font-weight="400" font-size="19" transform="translate(646.504 100)">Neutral</text><path d="M797.458 109.933C795.853 98.7574 804.121 88.4651 815.926 86.9449 820.71 86.3289 825.573 87.2497 829.739 89.5601 834.152 81.6836 844.466 78.6901 852.776 82.874 854.228 83.6056 855.562 84.5328 856.734 85.6269 860.172 79.0978 868.545 76.4452 875.436 79.7021 877.343 80.6036 879.007 81.9073 880.3 83.5131 885.84 77.3387 895.631 76.576 902.168 81.8095 904.915 84.0092 906.766 87.0431 907.405 90.3911 916.483 92.7362 921.839 101.619 919.367 110.232 919.159 110.956 918.898 111.665 918.586 112.355 925.867 121.329 924.085 134.192 914.606 141.084 911.655 143.23 908.169 144.619 904.486 145.118 904.404 154.773 896.064 162.537 885.859 162.459 882.449 162.433 879.113 161.516 876.221 159.807 872.769 170.632 860.728 176.75 849.327 173.472 844.549 172.099 840.42 169.194 837.646 165.254 825.973 171.92 810.821 168.334 803.804 157.244 803.716 157.104 803.629 156.964 803.544 156.822 795.904 157.669 788.984 152.507 788.087 145.294 787.609 141.449 788.95 137.6 791.752 134.774 785.137 131.087 782.915 122.994 786.789 116.698 789.023 113.065 792.943 110.664 797.342 110.232Z" fill="#C00000" fill-rule="evenodd"/><text fill="#FFFFFF" font-family="Calibri,Calibri_MSFontService,sans-serif" font-weight="400" font-size="19" transform="translate(815.887 130)">Negative</text><path d="M0-1.66667 63.5841-1.66667 63.5841 174.581 61.9174 172.915 115.502 172.915 115.502 176.248 60.2508 176.248 60.2508 0 61.9174 1.66667 0 1.66667ZM113.835 169.581 123.835 174.581 113.835 179.581Z" fill="#44546A" transform="matrix(-1.83697e-16 -1 -1 1.83697e-16 680.081 298.335)"/><path d="M0-1.66667 78.5571-1.66667 78.5571 0.192231 76.8904-1.47444 145.447-1.47444 145.447 1.8589 75.2237 1.8589 75.2237 0 76.8904 1.66667 0 1.66667ZM143.781-4.80777 153.781 0.192231 143.781 5.19223Z" fill="#44546A" transform="matrix(-1.83697e-16 -1 -1 1.83697e-16 680.692 298.281)"/><path d="M678.833 298.321 678.833 234.744 854.697 234.744 853.03 236.41 853.03 182.833 856.363 182.833 856.363 238.077 680.5 238.077 682.167 236.41 682.167 298.321ZM849.697 184.5 854.697 174.5 859.697 184.5Z" fill="#44546A"/><rect x="415.5" y="461.5" width="504" height="202" stroke="#000000" stroke-width="2.66667" stroke-linejoin="round" stroke-miterlimit="10" stroke-dasharray="10.6667 8 2.66667 8" fill="none"/><path d="M194.5 211.5 194.5 224 181.5 236.5 168.5 224 168.5 211.5 181.5 224Z" stroke="#44546A" stroke-width="1.33333" stroke-miterlimit="8" fill="#44546A" fill-rule="evenodd"/><path d="M194.5 465.5 194.5 477.5 181.5 489.5 168.5 477.5 168.5 465.5 181.5 477.5Z" stroke="#44546A" stroke-width="1.33333" stroke-miterlimit="8" fill="#44546A" fill-rule="evenodd"/><path d="M338.5 562.5 351 562.5 363.5 575.5 351 588.5 338.5 588.5 351 575.5Z" stroke="#44546A" stroke-width="1.33333" stroke-miterlimit="8" fill="#44546A" fill-rule="evenodd"/><path d="M667.5 440.5 667.5 428 680.5 415.5 693.5 428 693.5 440.5 680.5 428Z" stroke="#44546A" stroke-width="1.33333" stroke-miterlimit="8" fill="#44546A" fill-rule="evenodd"/><text font-family="Calibri,Calibri_MSFontService,sans-serif" font-weight="700" font-size="19" transform="translate(559.929 173)">Distance &lt; rate</text><text font-family="Calibri,Calibri_MSFontService,sans-serif" font-weight="700" font-size="19" transform="translate(509.21 259)">PW &gt; NW</text><text font-family="Calibri,Calibri_MSFontService,sans-serif" font-weight="700" font-size="19" transform="translate(781.916 259)">PW &lt; NW</text></g></svg>